Coordinates
version=1
nRows=17
nColumns=24
inDegrees=yes

Units are S.I. units (second, meters, Newtons, ...)
Angles are in degrees.

endheader
time	pelvis_tilt	pelvis_list	pelvis_rotation	pelvis_tx	pelvis_ty	pelvis_tz	hip_flexion_r	hip_adduction_r	hip_rotation_r	knee_angle_r	ankle_angle_r	subtalar_angle_r	mtp_angle_r	hip_flexion_l	hip_adduction_l	hip_rotation_l	knee_angle_l	ankle_angle_l	subtalar_angle_l	mtp_angle_l	lumbar_extension	lumbar_bending	lumbar_rotation
      4.13000000	    -12.55503096	      8.89435961	     -1.27275977	     -0.87289785	     -0.04102992	      0.44216342	     10.62888932	     -9.64748134	      3.25673831	    -50.53076753	    -10.41216406	      7.74393128	     20.96030913	     32.80017506	     12.90557292	      4.11069855	    -25.37555986	     -3.34749096	     -4.48501847	      1.24008614	     11.12440526	    -10.25032501	     13.41722930
      4.13500000	    -12.58584491	      8.85914746	     -1.27213392	     -0.86622735	     -0.04005462	      0.44181796	     11.72890749	     -9.66435785	      3.21693030	    -51.58913001	    -10.26811049	      6.75903776	     20.55710105	     32.28624259	     12.88667481	      4.03566317	    -25.18281476	     -2.93554294	     -4.24287495	      1.51471380	     11.06741083	    -10.20533142	     13.27038813
      4.14000000	    -12.65110155	      8.85199964	     -1.21063486	     -0.85937869	     -0.03914172	      0.44137688	     12.82980411	     -9.73632935	      3.12892498	    -52.58298374	     -9.86974759	      6.13558263	     19.97641174	     31.76429305	     12.93585968	      4.06521568	    -24.93684134	     -2.51658600	     -4.03015463	      1.80906417	     11.07743937	    -10.19791916	     13.06660847
      4.14500000	    -12.59058708	      8.88943055	     -1.16878350	     -0.85250987	     -0.03801589	      0.44091053	     13.77901204	     -9.86570665	      3.06094661	    -53.42939022	     -9.57827650	      5.54288695	     19.95778688	     31.06736304	     13.05329325	      4.15261274	    -24.62061486	     -2.21406194	     -4.01705557	      1.88840046	     10.95313989	    -10.23406607	     12.84404583
      4.15000000	    -12.58964422	      8.84435259	     -1.13866770	     -0.84583384	     -0.03694641	      0.44050698	     14.81359179	     -9.87140731	      3.01064242	    -54.22756411	     -9.28317571	      4.90590392	     19.79055385	     30.46662737	     13.07683702	      4.24984369	    -24.35389809	     -1.92438991	     -4.01088305	      1.95433422	     10.86863164	    -10.17798643	     12.62955520
      4.15500000	    -12.55688304	      8.81451064	     -1.10099626	     -0.83902298	     -0.03582286	      0.44006789	     15.78163091	     -9.90122854	      2.97149259	    -54.91897117	     -8.90213462	      4.51910702	     19.79452272	     29.78379320	     13.13638114	      4.45380644	    -24.02671632	     -1.63126530	     -4.04765316	      1.98386412	     10.77921376	    -10.13876201	     12.41730333
      4.16000000	    -12.55377222	      8.75772326	     -1.05044640	     -0.83231478	     -0.03473577	      0.43961622	     16.78415693	     -9.89165629	      2.92275624	    -55.54923868	     -8.50651561	      4.14938670	     19.77964817	     29.14393676	     13.18182400	      4.70081987	    -23.71672599	     -1.39306329	     -4.17519407	      1.92065791	     10.70507520	    -10.06991907	     12.18047002
      4.16500000	    -12.56749356	      8.67041541	     -0.98137138	     -0.82568284	     -0.03367171	      0.43909515	     17.79370559	     -9.84745707	      2.86978867	    -56.10705149	     -8.05228387	      3.89330352	     19.78552392	     28.52811253	     13.21968390	      5.01570799	    -23.42284427	     -1.20304236	     -4.40896354	      1.72064176	     10.63679242	     -9.96543259	     11.90814240
      4.17000000	    -12.55249427	      8.57899086	     -0.92069296	     -0.81899983	     -0.03256182	      0.43859289	     18.75254007	     -9.79131485	      2.82900079	    -56.57230392	     -7.59170482	      3.72286703	     19.86900573	     27.85747646	     13.25352728	      5.37017107	    -23.09875321	     -1.00280814	     -4.65650148	      1.46974136	     10.55242441	     -9.85460469	     11.64815567
      4.17500000	    -12.52567106	      8.46776739	     -0.85448165	     -0.81233535	     -0.03144038	      0.43806898	     19.68275349	     -9.71008143	      2.78029446	    -56.95531646	     -7.13216028	      3.58181164	     20.01388039	     27.16884838	     13.27400488	      5.76349208	    -22.77147163	     -0.81990918	     -4.93659391	      1.16922603	     10.45379558	     -9.72298580	     11.37876302
      4.18000000	    -12.49276807	      8.33882182	     -0.79323730	     -0.80564348	     -0.03029687	      0.43756027	     20.59084788	     -9.60024952	      2.73579487	    -57.25442333	     -6.71477248	      3.47028149	     20.17709786	     26.45270791	     13.26813094	      6.17876407	    -22.40994138	     -0.62260068	     -5.19090999	      0.91313343	     10.36196222	     -9.57031376	     11.15311966
      4.18500000	    -12.45323619	      8.19727537	     -0.68911837	     -0.79903412	     -0.02916316	      0.43697739	     21.46709117	     -9.48793781	      2.65469310	    -57.47606490	     -6.25035950	      3.37848920	     20.40915562	     25.74163588	     13.27301534	      6.61790424	    -22.07125229	     -0.49164897	     -5.52947332	      0.49133467	     10.23981295	     -9.41020443	     10.80559310
      4.19000000	    -12.40084465	      8.04064439	     -0.60120161	     -0.79238388	     -0.02800603	      0.43643246	     22.31559235	     -9.34604734	      2.58614677	    -57.61843619	     -5.84229466	      3.29187407	     20.63456412	     24.99480779	     13.24226585	      7.04540375	    -21.69475464	     -0.31528233	     -5.79210129	      0.11350324	     10.12079564	     -9.23186916	     10.51198372
      4.19500000	    -12.34286537	      7.87391078	     -0.50360064	     -0.78574469	     -0.02684805	      0.43589979	     23.14178165	     -9.19079104	      2.50610359	    -57.68930074	     -5.46332701	      3.19976248	     20.84128449	     24.23233704	     13.19126587	      7.45981272	    -21.29548645	     -0.13911683	     -6.01083648	     -0.23117281	      9.99886373	     -9.04841324	     10.21000006
      4.20000000	    -12.29652472	      7.70454307	     -0.42888242	     -0.77911943	     -0.02572889	      0.43543293	     23.98344083	     -9.01273563	      2.45197048	    -57.71094528	     -5.13267098	      3.10833962	     20.97106076	     23.47296683	     13.10713943	      7.83154222	    -20.86012607	      0.05532970	     -6.15145845	     -0.42283253	      9.89748428	     -8.85883424	      9.98748873
      4.20500000	    -12.23973144	      7.51374393	     -0.31482886	     -0.77251617	     -0.02460494	      0.43492183	     24.78095123	     -8.82505865	      2.35604408	    -57.65170921	     -4.79793500	      3.01340829	     21.08589245	     22.69617922	     13.01020605	      8.22217832	    -20.41350681	      0.21242534	     -6.30793306	     -0.64339193	      9.77858667	     -8.65556822	      9.67628693
      4.21000000	    -12.14554247	      7.31456756	     -0.16495542	     -0.76588314	     -0.02344934	      0.43435808	     25.49893735	     -8.65145074	      2.20350753	    -57.50507537	     -4.46567335	      2.88535355	     21.17992325	     21.86782315	     12.91133566	      8.59061785	    -19.94716031	      0.35341892	     -6.46432291	     -0.92053079	      9.61751523	     -8.44711076	      9.29579086
